<svg width="52" height="52" viewBox="0 0 52 52" fill="none" xmlns="http://www.w3.org/2000/svg">
<path fill-rule="evenodd" clip-rule="evenodd" d="M17.1513 7.58301C11.3381 7.58301 7.58325 11.1255 7.58325 16.6072V35.39C7.58325 40.8717 11.3381 44.4163 17.1513 44.4163H34.8486C40.6618 44.4163 44.4166 40.8717 44.4166 35.39V16.6072C44.4166 11.1255 40.6618 7.58301 34.8486 7.58301H17.1513ZM34.8486 47.6663H17.1513C9.48558 47.6663 4.33325 42.7328 4.33325 35.39V16.6072C4.33325 9.26434 9.48558 4.33301 17.1513 4.33301H34.8486C42.5142 4.33301 47.6666 9.26434 47.6666 16.6072V35.39C47.6666 42.7328 42.5142 47.6663 34.8486 47.6663Z" fill="#292929"/>
<path fill-rule="evenodd" clip-rule="evenodd" d="M34.8527 27.625H17.1467C16.2497 27.625 15.5217 26.897 15.5217 26C15.5217 25.103 16.2497 24.375 17.1467 24.375H34.8527C35.7497 24.375 36.4777 25.103 36.4777 26C36.4777 26.897 35.7497 27.625 34.8527 27.625Z" fill="#292929"/>
<path fill-rule="evenodd" clip-rule="evenodd" d="M26.6984 35.7457C26.2824 35.7457 25.8642 35.5875 25.5479 35.2668C24.9152 34.6298 24.9174 33.6028 25.5522 32.9702L32.5505 26L25.5522 19.0298C24.9174 18.3972 24.9152 17.3702 25.5479 16.7332C26.1805 16.0962 27.2075 16.0962 27.8445 16.7288L35.9999 24.8495C36.3075 25.1528 36.4787 25.5688 36.4787 26C36.4787 26.4312 36.3075 26.8472 35.9999 27.1505L27.8445 35.2712C27.5282 35.5875 27.1122 35.7457 26.6984 35.7457Z" fill="#292929"/>
</svg>
