<svg width="22" height="26" viewBox="0 0 22 26" fill="none" xmlns="http://www.w3.org/2000/svg">
<mask id="mask0_255_260" style="mask-type:luminance" maskUnits="userSpaceOnUse" x="0" y="0" width="22" height="26">
<path fill-rule="evenodd" clip-rule="evenodd" d="M0.250488 0.514648H21.5657V25.3315H0.250488V0.514648Z" fill="white"/>
</mask>
<g mask="url(#mask0_255_260)">
<path fill-rule="evenodd" clip-rule="evenodd" d="M5.96682 2.38965C3.89557 2.38965 2.17557 4.06715 2.12682 6.1359V19.5346C2.08182 21.6609 3.75682 23.4109 5.86307 23.4571H15.9668C18.0531 23.3821 19.7043 21.6609 19.6906 19.5409V8.42465L13.8981 2.38965H5.98182H5.96682ZM5.98182 25.3321H5.82432C2.68432 25.2646 0.184324 22.6546 0.251824 19.5146V6.1134C0.325574 3.01215 2.88557 0.514648 5.96307 0.514648H5.98557H14.2968C14.5518 0.514648 14.7956 0.618398 14.9731 0.802148L21.3056 7.3984C21.4718 7.57215 21.5656 7.8059 21.5656 8.04715V19.5346C21.5856 22.6709 19.1406 25.2196 15.9993 25.3321H5.98182Z" fill="#292929"/>
</g>
<path fill-rule="evenodd" clip-rule="evenodd" d="M20.6227 9.23037H17.1802C14.8915 9.22412 13.0327 7.35912 13.0327 5.07412V1.43787C13.0327 0.920366 13.4527 0.500366 13.9702 0.500366C14.4877 0.500366 14.9077 0.920366 14.9077 1.43787V5.07412C14.9077 6.32912 15.9277 7.35162 17.1827 7.35537H20.6227C21.1402 7.35537 21.5602 7.77537 21.5602 8.29287C21.5602 8.81037 21.1402 9.23037 20.6227 9.23037Z" fill="#292929"/>
<path fill-rule="evenodd" clip-rule="evenodd" d="M10.4287 18.8752C9.91121 18.8752 9.49121 18.4552 9.49121 17.9377V10.3865C9.49121 9.86897 9.91121 9.44897 10.4287 9.44897C10.9462 9.44897 11.3662 9.86897 11.3662 10.3865V17.9377C11.3662 18.4552 10.9462 18.8752 10.4287 18.8752Z" fill="#292929"/>
<path fill-rule="evenodd" clip-rule="evenodd" d="M10.4275 18.874C10.1788 18.874 9.93879 18.7752 9.76379 18.5977L6.83254 15.6552C6.46754 15.2877 6.46879 14.694 6.83504 14.329C7.20254 13.964 7.79629 13.964 8.16129 14.3315L10.4275 16.609L12.6938 14.3315C13.0588 13.964 13.6525 13.964 14.02 14.329C14.3863 14.694 14.3875 15.2877 14.0225 15.6552L11.0913 18.5977C10.9163 18.7752 10.6763 18.874 10.4275 18.874Z" fill="#292929"/>
</svg>
